<svg width="836" height="105" viewBox="0 0 836 105" fill="none" xmlns="http://www.w3.org/2000/svg">
<g clip-path="url(#clip0_14_73)">
<g clip-path="url(#clip1_14_73)">
<path d="M36.75 0H11.25C5.0368 0 0 5.0368 0 11.25V36.75C0 42.9632 5.0368 48 11.25 48H36.75C42.9632 48 48 42.9632 48 36.75V11.25C48 5.0368 42.9632 0 36.75 0Z" fill="#242938"/>
<path d="M23.8648 5.4375C14.345 5.4375 14.9395 9.56588 14.9395 9.56588L14.9501 13.8428H24.0347V15.127H11.3417C11.3417 15.127 5.25 14.4361 5.25 24.0416C5.25 33.6472 10.567 33.3068 10.567 33.3068H13.7402V28.8493C13.7402 28.8493 13.5692 23.5324 18.9724 23.5324H27.9825C27.9825 23.5324 33.0448 23.6141 33.0448 18.6398V10.4149C33.0448 10.4149 33.8134 5.4375 23.8648 5.4375ZM18.8556 8.31356C19.7595 8.31356 20.49 9.04408 20.49 9.94792C20.49 10.8518 19.7595 11.5823 18.8556 11.5823C17.9517 11.5823 17.2212 10.8518 17.2212 9.94792C17.2212 9.04408 17.9517 8.31356 18.8556 8.31356Z" fill="url(#paint0_linear_14_73)"/>
<path d="M24.1352 42.7421C33.655 42.7421 33.0606 38.6139 33.0606 38.6139L33.0499 34.3369H23.9654V33.0527H36.6584C36.6584 33.0527 42.75 33.7436 42.75 24.138C42.75 14.5324 37.4331 14.8731 37.4331 14.8731H34.2599V19.3305C34.2599 19.3305 34.4309 24.6474 29.0277 24.6474H20.0175C20.0175 24.6474 14.9552 24.5655 14.9552 29.5399V37.7648C14.9552 37.7648 14.1866 42.7421 24.1352 42.7421ZM29.1445 39.8661C28.2405 39.8661 27.51 39.1356 27.51 38.2318C27.51 37.3279 28.2405 36.5974 29.1445 36.5974C30.0482 36.5974 30.7789 37.3279 30.7789 38.2318C30.7789 39.1356 30.0482 39.8661 29.1445 39.8661Z" fill="url(#paint1_linear_14_73)"/>
</g>
<g clip-path="url(#clip2_14_73)">
<path d="M92.75 0H67.25C61.0368 0 56 5.0368 56 11.25V36.75C56 42.9632 61.0368 48 67.25 48H92.75C98.9632 48 104 42.9632 104 36.75V11.25C104 5.0368 98.9632 0 92.75 0Z" fill="#00599C"/>
<path d="M76.7673 39.4719C68.211 39.4719 61.25 32.511 61.25 23.9548C61.25 15.3985 68.211 8.4375 76.7673 8.4375C82.2883 8.4375 87.4376 11.4086 90.2051 16.1912L83.4896 20.0773C82.1045 17.6833 79.5284 16.1961 76.7673 16.1961C72.4891 16.1961 69.0086 19.6766 69.0086 23.9548C69.0086 28.2328 72.4891 31.7134 76.7673 31.7134C79.5286 31.7134 82.1047 30.2261 83.4899 27.8318L90.2054 31.7177C87.4379 36.5008 82.2886 39.4719 76.7673 39.4719Z" fill="white"/>
<path d="M92.2844 23.0927H90.5602V21.3684H88.8363V23.0927H87.1121V24.8168H88.8363V26.541H90.5602V24.8168H92.2844V23.0927Z" fill="white"/>
<path d="M98.75 23.0927H97.0258V21.3684H95.3019V23.0927H93.5776V24.8168H95.3019V26.541H97.0258V24.8168H98.75V23.0927Z" fill="white"/>
</g>
<g clip-path="url(#clip3_14_73)">
<path d="M205.75 0H180.25C174.037 0 169 5.0368 169 11.25V36.75C169 42.9632 174.037 48 180.25 48H205.75C211.963 48 217 42.9632 217 36.75V11.25C217 5.0368 211.963 0 205.75 0Z" fill="#023430"/>
<path d="M201.095 20.1733C199.119 11.4581 195.002 9.13794 193.951 7.49786C193.518 6.77537 193.134 6.02436 192.803 5.25C192.747 6.02422 192.645 6.51201 191.987 7.09912C190.666 8.27726 185.054 12.8504 184.582 22.7527C184.142 31.9856 191.369 37.6787 192.324 38.2672C193.058 38.6286 193.953 38.2749 194.389 37.9432C197.873 35.5522 202.633 29.1776 201.099 20.1733" fill="#10AA50"/>
<path d="M193.102 33.3508C192.92 35.6361 192.79 36.9639 192.328 38.2699C192.328 38.2699 192.631 40.4454 192.844 42.75H193.598C193.778 41.1272 194.052 39.5162 194.42 37.9253C193.444 37.4453 193.14 35.3561 193.102 33.3508Z" fill="#B8C4C2"/>
<path d="M194.418 37.9266C193.433 37.4711 193.147 35.3379 193.104 33.3508C193.347 30.0728 193.418 26.7842 193.317 23.4986C193.265 21.7747 193.341 7.53143 192.892 5.44614C193.199 6.15242 193.553 6.83741 193.951 7.49659C195.002 9.13796 199.121 11.4581 201.095 20.1733C202.633 29.1623 197.899 35.52 194.418 37.9266Z" fill="#12924F"/>
</g>
<g clip-path="url(#clip4_14_73)">
<path d="M149.75 0H124.25C118.037 0 113 5.0368 113 11.25V36.75C113 42.9632 118.037 48 124.25 48H149.75C155.963 48 161 42.9632 161 36.75V11.25C161 5.0368 155.963 0 149.75 0Z" fill="#242938"/>
<mask id="mask0_14_73" style="mask-type:luminance" maskUnits="userSpaceOnUse" x="124" y="5" width="26" height="38">
<path d="M149.443 5.25H124.438V42.75H149.443V5.25Z" fill="white"/>
</mask>
<g mask="url(#mask0_14_73)">
<path d="M130.69 42.75C134.14 42.75 136.94 39.9501 136.94 36.5001V30.2499H130.69C127.24 30.2499 124.44 33.0501 124.44 36.5001C124.44 39.9501 127.24 42.75 130.69 42.75Z" fill="#0ACF83"/>
<path d="M124.44 24C124.44 20.55 127.24 17.75 130.69 17.75H136.94V30.2499H130.69C127.24 30.2499 124.44 27.45 124.44 24Z" fill="#A259FF"/>
<path d="M124.44 11.5C124.44 8.04999 127.24 5.25 130.69 5.25H136.94V17.75H130.69C127.24 17.75 124.44 14.95 124.44 11.5Z" fill="#F24E1E"/>
<path d="M136.94 5.25H143.19C146.64 5.25 149.44 8.04999 149.44 11.5C149.44 14.95 146.64 17.75 143.19 17.75H136.94V5.25Z" fill="#FF7262"/>
<path d="M149.44 24C149.44 27.45 146.64 30.2499 143.19 30.2499C139.74 30.2499 136.94 27.45 136.94 24C136.94 20.55 139.74 17.75 143.19 17.75C146.64 17.75 149.44 20.55 149.44 24Z" fill="#1ABCFE"/>
</g>
</g>
<g clip-path="url(#clip5_14_73)">
<path d="M318.75 0H293.25C287.037 0 282 5.0368 282 11.25V36.75C282 42.9632 287.037 48 293.25 48H318.75C324.963 48 330 42.9632 330 36.75V11.25C330 5.0368 324.963 0 318.75 0Z" fill="#F03C2E"/>
<mask id="mask1_14_73" style="mask-type:luminance" maskUnits="userSpaceOnUse" x="287" y="5" width="38" height="38">
<path d="M324.75 5.25H287.25V42.75H324.75V5.25Z" fill="white"/>
</mask>
<g mask="url(#mask1_14_73)">
<path d="M324.042 22.3301L307.67 5.95781C307.446 5.73351 307.18 5.55559 306.887 5.4342C306.594 5.3128 306.28 5.25032 305.962 5.25032C305.645 5.25032 305.331 5.3128 305.038 5.4342C304.745 5.55559 304.479 5.73351 304.255 5.95781L300.857 9.35625L305.169 13.6688C306.172 13.3172 307.321 13.5574 308.12 14.3566C308.5 14.7378 308.766 15.2182 308.886 15.7431C309.007 16.268 308.977 16.8162 308.801 17.325L312.957 21.4817C313.963 21.1348 315.123 21.3585 315.926 22.1636C316.193 22.4306 316.404 22.7475 316.549 23.0963C316.693 23.445 316.767 23.8187 316.767 24.1961C316.767 24.5736 316.693 24.9473 316.548 25.296C316.404 25.6446 316.192 25.9614 315.925 26.2283C315.658 26.4953 315.341 26.7068 314.993 26.8511C314.644 26.9957 314.27 27.0699 313.893 27.0698C313.515 27.0698 313.141 26.9953 312.793 26.8509C312.444 26.7064 312.127 26.4947 311.86 26.2277C311.017 25.3839 310.808 24.1418 311.235 23.1023L307.358 19.2257V29.427C307.64 29.5661 307.897 29.7499 308.12 29.9708C308.387 30.2376 308.598 30.5543 308.743 30.903C308.887 31.2516 308.962 31.6253 308.962 32.0027C308.962 32.3801 308.887 32.7538 308.743 33.1024C308.598 33.4511 308.387 33.768 308.12 34.0348C307.853 34.3016 307.536 34.5133 307.188 34.6577C306.839 34.8021 306.465 34.8765 306.088 34.8765C305.71 34.8765 305.337 34.8021 304.988 34.6577C304.639 34.5133 304.323 34.3016 304.056 34.0348C303.789 33.768 303.577 33.4513 303.432 33.1028C303.287 32.754 303.213 32.3801 303.213 32.0027C303.213 31.6253 303.287 31.2516 303.432 30.9028C303.577 30.5541 303.789 30.2374 304.056 29.9708C304.333 29.6942 304.642 29.4844 304.997 29.3438V19.0476C304.655 18.9069 304.333 18.6996 304.056 18.4207C303.652 18.0177 303.378 17.5036 303.268 16.9441C303.158 16.3845 303.217 15.8048 303.437 15.2789L299.183 11.0273L287.957 22.2422C287.732 22.4664 287.554 22.7327 287.433 23.0258C287.311 23.3188 287.249 23.6329 287.249 23.9501C287.249 24.2674 287.311 24.5816 287.433 24.8747C287.554 25.1678 287.732 25.434 287.957 25.6583L304.33 42.0293C304.554 42.2535 304.82 42.4314 305.113 42.5529C305.406 42.6743 305.72 42.7367 306.037 42.7367C306.355 42.7367 306.669 42.6743 306.962 42.5529C307.255 42.4314 307.521 42.2535 307.745 42.0293L324.042 25.7578C324.267 25.5336 324.445 25.2673 324.566 24.9743C324.688 24.6812 324.75 24.3671 324.75 24.0499C324.75 23.7326 324.688 23.4184 324.566 23.1253C324.445 22.8323 324.267 22.566 324.042 22.3418" fill="white"/>
</g>
</g>
<g clip-path="url(#clip6_14_73)">
<path d="M374.75 0H349.25C343.037 0 338 5.0368 338 11.25V36.75C338 42.9632 343.037 48 349.25 48H374.75C380.963 48 386 42.9632 386 36.75V11.25C386 5.0368 380.963 0 374.75 0Z" fill="#242938"/>
<path d="M362 5.625C351.646 5.625 343.25 14.0195 343.25 24.3752C343.25 32.6595 348.622 39.6878 356.073 42.1671C357.01 42.3407 357.354 41.7604 357.354 41.2652C357.354 40.818 357.336 39.3411 357.328 37.7743C352.112 38.9085 351.011 35.562 351.011 35.562C350.158 33.3947 348.929 32.8185 348.929 32.8185C347.228 31.6547 349.057 31.6787 349.057 31.6787C350.94 31.8109 351.932 33.6109 351.932 33.6109C353.604 36.4774 356.318 35.6486 357.388 35.1696C357.556 33.9576 358.042 33.1305 358.578 32.6623C354.414 32.1881 350.036 30.5803 350.036 23.3959C350.036 21.3488 350.768 19.6761 351.968 18.363C351.773 17.8908 351.131 15.9837 352.149 13.401C352.149 13.401 353.724 12.8971 357.307 15.323C358.803 14.9075 360.407 14.6992 362 14.6921C363.594 14.6992 365.199 14.9075 366.697 15.323C370.276 12.8971 371.848 13.401 371.848 13.401C372.869 15.9837 372.227 17.8908 372.032 18.363C373.234 19.6761 373.962 21.3488 373.962 23.3959C373.962 30.5976 369.576 32.1833 365.4 32.6473C366.073 33.2293 366.672 34.3703 366.672 36.1196C366.672 38.6284 366.65 40.6476 366.65 41.2652C366.65 41.7641 366.988 42.3488 367.938 42.1646C375.384 39.6825 380.75 32.6567 380.75 24.3752C380.75 14.0195 372.355 5.625 362 5.625ZM350.273 32.3349C350.231 32.4281 350.085 32.4561 349.951 32.3921C349.815 32.331 349.739 32.2039 349.783 32.1105C349.823 32.0145 349.97 31.9879 350.106 32.0522C350.242 32.1133 350.32 32.2416 350.273 32.3349ZM351.195 33.1579C351.105 33.2409 350.931 33.2023 350.812 33.0713C350.689 32.9406 350.666 32.7658 350.757 32.6816C350.849 32.5988 351.019 32.6376 351.142 32.7683C351.264 32.9006 351.288 33.0741 351.195 33.1579ZM351.828 34.2109C351.713 34.2908 351.525 34.2159 351.409 34.0491C351.294 33.8824 351.294 33.6825 351.411 33.6023C351.528 33.5222 351.713 33.5942 351.83 33.7598C351.945 33.9293 351.945 34.1293 351.828 34.2109ZM352.898 35.4304C352.795 35.5436 352.576 35.5133 352.416 35.3586C352.252 35.2074 352.206 34.9929 352.309 34.8795C352.413 34.7659 352.633 34.7979 352.795 34.9513C352.958 35.1021 353.007 35.3183 352.898 35.4304ZM354.281 35.8419C354.235 35.9889 354.024 36.0557 353.812 35.9933C353.6 35.9289 353.461 35.757 353.504 35.6085C353.548 35.4608 353.76 35.3912 353.974 35.4579C354.186 35.5219 354.325 35.6927 354.281 35.8419ZM355.855 36.0167C355.86 36.1712 355.68 36.2994 355.457 36.3023C355.233 36.3073 355.051 36.1821 355.049 36.03C355.049 35.8738 355.225 35.7469 355.449 35.7431C355.672 35.7388 355.855 35.8629 355.855 36.0167ZM357.401 35.9574C357.427 36.1082 357.273 36.2633 357.051 36.3045C356.833 36.3443 356.632 36.2511 356.604 36.1014C356.577 35.9468 356.735 35.7919 356.952 35.7518C357.174 35.7133 357.373 35.8041 357.401 35.9574Z" fill="white"/>
</g>
<g clip-path="url(#clip7_14_73)">
<path d="M430.75 0H405.25C399.037 0 394 5.0368 394 11.25V36.75C394 42.9632 399.037 48 405.25 48H430.75C436.963 48 442 42.9632 442 36.75V11.25C442 5.0368 436.963 0 430.75 0Z" fill="#242938"/>
<path d="M428.414 38.6959V29.5744H432.468V42.75H402.062V29.5744H406.117V38.6959H428.414Z" fill="#BCBBBB"/>
<path d="M423.853 5.25L421.117 7.27702L431.15 20.7568L433.887 18.7297L423.853 5.25ZM428.414 23.8986L415.542 13.1554L417.671 10.6216L430.542 21.3649L428.414 23.8986ZM411.286 20.6554L426.488 27.75L427.907 24.7095L412.705 17.6149L411.286 20.6554ZM425.475 31.5911L426.164 28.6014L409.846 25.206L409.157 28.5608L425.475 31.5911ZM425.373 35.6554H409.157V32.6149H425.373V35.6554Z" fill="#F48024"/>
</g>
<g clip-path="url(#clip8_14_73)">
<path d="M487 0H461.5C455.287 0 450.25 5.0368 450.25 11.25V36.75C450.25 42.9632 455.287 48 461.5 48H487C493.213 48 498.25 42.9632 498.25 36.75V11.25C498.25 5.0368 493.213 0 487 0Z" fill="#242938"/>
<path d="M466.365 37.4861L470.965 40.0399H477.92L484.427 35.1546L487.344 27.4935L480.613 19.3884L478.706 14.8363L469.394 15.1693L469.507 17.723L467.712 21.0538L464.907 26.4943L464.346 31.0464L466.365 37.4861Z" fill="#ECEFF1"/>
<path d="M485.325 21.498C483.53 18.9442 482.071 17.3899 481.286 14.1701C480.501 10.9502 481.51 11.8385 480.837 9.06276C480.501 7.61938 479.94 6.62012 479.379 5.84291C478.706 5.06571 477.921 4.62159 477.472 4.51056C476.462 3.95542 474.106 3.06718 471.189 4.62159C468.16 6.17601 468.497 9.50687 469.058 16.2796C469.058 16.7238 468.946 17.2789 468.721 17.723C468.273 18.7223 467.487 19.6104 466.814 20.3878C466.029 21.498 465.244 22.6084 464.683 23.8296C463.337 26.3833 462.103 29.6031 462.439 30.8244C463 30.7134 470.068 41.3722 470.068 41.5942C470.516 41.4832 472.423 41.4833 474.106 41.4833C476.462 41.3723 477.808 41.2612 479.715 41.7052C479.715 41.3722 479.603 41.0391 479.603 40.7061C479.603 40.0399 479.715 39.4847 479.828 38.7075C479.94 38.1523 480.052 37.5973 480.164 36.9311C479.042 37.9303 477.023 39.0407 475.116 39.3737C473.433 39.7067 470.628 39.1517 469.282 37.4861C469.395 37.4861 469.619 37.4861 469.731 37.3751C470.068 37.2641 470.404 37.1531 470.516 36.9311C470.853 36.3759 470.628 35.8208 470.404 35.4878C470.18 35.1546 468.497 33.9332 467.712 33.2672C466.926 32.601 466.478 32.2678 466.029 31.8238C466.029 31.8238 465.356 31.1576 465.131 30.9354C464.907 30.7134 464.795 30.4914 464.683 30.3802C464.458 29.8252 464.346 29.1591 464.458 28.2709C464.571 27.0495 465.019 26.0501 465.58 24.9399C465.805 24.4957 466.366 23.6076 466.366 23.6076C466.366 23.6076 464.458 28.2709 465.468 29.7142C465.468 29.7142 465.58 28.2709 466.029 26.8275C466.366 25.8281 466.926 24.3847 467.6 23.6076C468.273 22.8304 469.955 19.9436 470.068 18.1671C470.068 17.3899 470.18 16.6127 470.18 16.0576C469.731 15.6135 477.584 14.5032 478.033 15.7245C478.145 16.1686 479.715 20.1656 480.613 22.2752C481.062 23.2746 481.623 24.1627 481.959 25.2729C482.296 26.4943 482.52 28.1597 482.52 29.8252C482.52 30.1582 482.52 30.7134 482.408 31.2686C482.632 31.2686 487.007 26.6053 481.847 22.7194C481.847 22.7194 484.988 24.1628 485.1 27.0495C485.212 29.3811 484.203 31.2686 483.978 31.6016C484.091 31.6016 486.334 32.601 486.446 32.601C486.895 32.601 487.793 32.2678 487.793 32.2678C487.905 31.9348 488.241 31.0464 488.241 30.7134C489.027 28.1597 487.119 24.0517 485.325 21.498Z" fill="#263238"/>
<path d="M471.077 14.1701C471.883 14.1701 472.535 13.1759 472.535 11.9495C472.535 10.7231 471.883 9.72893 471.077 9.72893C470.272 9.72893 469.619 10.7231 469.619 11.9495C469.619 13.1759 470.272 14.1701 471.077 14.1701Z" fill="#ECEFF1"/>
<path d="M476.125 14.3921C477.179 14.3921 478.033 13.2488 478.033 11.8385C478.033 10.4281 477.179 9.28481 476.125 9.28481C475.072 9.28481 474.218 10.4281 474.218 11.8385C474.218 13.2488 475.072 14.3921 476.125 14.3921Z" fill="#ECEFF1"/>
<path d="M471.892 12.1015C471.799 11.3714 471.374 10.8233 470.944 10.8771C470.514 10.9309 470.241 11.5664 470.334 12.2964C470.427 13.0264 470.851 13.5746 471.282 13.5207C471.712 13.4669 471.985 12.8315 471.892 12.1015Z" fill="#212121"/>
<path d="M476.013 13.726C476.633 13.726 477.135 13.0798 477.135 12.2826C477.135 11.4854 476.633 10.8392 476.013 10.8392C475.394 10.8392 474.891 11.4854 474.891 12.2826C474.891 13.0798 475.394 13.726 476.013 13.726Z" fill="#212121"/>
<path d="M490.934 36.7089C490.485 36.4869 489.7 36.1537 489.027 35.1546C488.69 34.5994 488.802 33.045 488.241 32.3788C487.905 31.9348 487.456 32.1568 487.344 32.1568C486.334 32.3788 483.978 33.9332 482.408 32.1568C482.183 31.9348 481.847 31.6016 481.286 31.6016C480.725 31.6016 480.501 31.8236 480.276 32.2678C480.052 32.712 480.052 33.045 480.052 34.1554C480.052 35.0436 480.052 36.0427 479.94 36.8199C479.715 38.7075 479.379 39.8179 479.379 40.9281C479.379 42.1494 479.715 42.9266 480.164 43.2596C480.501 43.5928 481.062 43.8148 482.296 43.8148C483.53 43.8148 484.315 43.3708 485.1 42.5934C485.661 42.0384 486.11 41.8162 487.68 40.7061C488.914 39.9289 490.822 38.9295 491.158 38.5965C491.382 38.3745 491.719 38.2633 491.719 37.5971C491.719 37.0421 491.27 36.8199 490.934 36.7089Z" fill="#FFC107"/>
<path d="M468.385 37.0421C467.263 35.2656 467.151 34.9326 466.365 33.8222C465.692 32.712 464.234 30.6024 463.337 30.6024C462.663 30.6024 462.327 30.9354 461.878 31.3796C461.429 31.8236 460.981 32.823 460.195 33.3782C459.522 33.9332 457.615 33.8222 457.166 34.4884C456.718 35.1546 457.615 36.1539 457.615 37.8193C457.615 38.4855 457.054 38.9295 456.942 39.3737C456.83 39.9289 456.718 40.2619 456.942 40.7061C457.391 41.3722 457.952 41.5942 461.766 42.3714C463.785 42.8156 465.692 43.9258 466.926 44.037C468.16 44.148 470.292 44.037 470.292 41.0391C470.404 39.2627 469.395 38.8185 468.385 37.0421Z" fill="#FFC107"/>
<path d="M470.516 16.9458C469.843 16.5017 469.282 16.0576 469.282 15.3914C469.282 14.7252 469.731 14.5032 470.404 13.948C470.516 13.837 471.75 12.7267 472.984 12.7267C474.218 12.7267 475.677 13.5039 476.238 13.726C477.247 13.948 478.257 14.1701 478.145 14.9473C478.033 16.0576 477.921 16.2797 476.799 16.8348C476.013 17.0568 474.555 18.2782 473.545 18.2782C473.097 18.2782 472.423 18.2782 471.975 18.1671C471.638 18.0561 471.077 17.501 470.516 16.9458Z" fill="#FFC107"/>
<path d="M470.292 16.0576C470.516 16.2796 470.853 16.5017 471.189 16.6127C471.414 16.7238 471.75 16.8348 471.75 16.8348C472.199 16.8348 472.536 16.8348 472.76 16.8348C473.321 16.8348 474.106 16.6127 474.891 16.1686C475.677 15.8355 475.789 15.6135 476.35 15.3914C476.911 15.0583 477.472 14.7252 477.247 14.6142C477.023 14.5032 476.799 14.6142 476.013 15.0583C475.34 15.5024 474.779 15.7245 474.106 16.0576C473.77 16.1686 473.321 16.3907 472.984 16.3907C472.648 16.3907 472.311 16.3907 471.975 16.3907C471.638 16.3907 471.414 16.2796 471.077 16.1686C470.853 16.0576 470.741 15.9466 470.628 15.9466C470.404 15.8355 469.955 15.3914 469.731 15.2804C469.731 15.2804 469.507 15.2804 469.619 15.3914C469.955 15.7245 470.068 15.8355 470.292 16.0576Z" fill="#634703"/>
<path d="M473.657 13.6149C473.77 13.837 473.994 13.837 474.106 13.948C474.218 14.0591 474.33 14.059 474.33 14.059C474.443 13.948 474.33 13.726 474.218 13.726C474.218 13.5039 473.657 13.5039 473.657 13.6149Z" fill="#634703"/>
<path d="M471.863 13.837C471.863 13.948 472.087 14.0591 472.087 13.948C472.199 13.837 472.311 13.726 472.423 13.726C472.648 13.6149 472.535 13.5039 472.199 13.5039C471.975 13.6149 471.975 13.726 471.863 13.837Z" fill="#634703"/>
<path d="M482.744 33.4892C482.744 33.6002 482.744 33.7112 482.744 33.8222C482.969 34.2664 483.53 34.3774 483.978 34.3774C484.651 34.3774 485.325 33.9332 485.661 33.4892C485.661 33.3782 485.773 33.267 485.886 33.156C486.11 32.823 486.222 32.601 486.334 32.4898C486.334 32.4898 486.222 32.3788 486.222 32.2678C486.11 32.0458 485.773 31.8236 485.325 31.7126C484.988 31.6016 484.427 31.4906 484.203 31.4906C483.193 31.3796 482.632 31.7126 482.296 32.0458C482.296 32.0458 482.408 32.0458 482.408 32.1568C482.632 32.3788 482.744 32.601 482.744 32.934C482.856 33.156 482.744 33.267 482.744 33.4892Z" fill="#455A64"/>
</g>
<g clip-path="url(#clip9_14_73)">
<path d="M36.75 56.25H11.25C5.0368 56.25 0 61.2868 0 67.5V93C0 99.2132 5.0368 104.25 11.25 104.25H36.75C42.9632 104.25 48 99.2132 48 93V67.5C48 61.2868 42.9632 56.25 36.75 56.25Z" fill="#F0DB4F"/>
<path d="M12.6209 96.3622L16.2942 94.1392C17.0029 95.3957 17.6475 96.4588 19.1938 96.4588C20.676 96.4588 21.6105 95.8791 21.6105 93.6238V78.2867H26.1214V93.6876C26.1214 98.3595 23.3827 100.486 19.3871 100.486C15.7787 100.486 13.6841 98.6173 12.6208 96.3619" fill="#323330"/>
<path d="M28.5715 95.8789L32.2443 93.7524C33.2112 95.3314 34.4678 96.4913 36.6908 96.4913C38.56 96.4913 39.7518 95.5568 39.7518 94.2679C39.7518 92.7214 38.5274 92.1735 36.4653 91.2716L35.3378 90.7881C32.0834 89.4028 29.9245 87.6628 29.9245 83.9897C29.9245 80.6064 32.5023 78.0287 36.53 78.0287C39.3976 78.0287 41.4597 79.0277 42.9417 81.6375L39.4297 83.8929C38.6562 82.5075 37.8188 81.9598 36.53 81.9598C35.2088 81.9598 34.3711 82.7976 34.3711 83.8929C34.3711 85.2461 35.2088 85.794 37.142 86.6319L38.2696 87.1151C42.1038 88.7586 44.2627 90.4337 44.2627 94.2034C44.2627 98.2635 41.0729 100.487 36.7876 100.487C32.599 100.487 29.8925 98.4889 28.5715 95.8789Z" fill="#323330"/>
</g>
<g clip-path="url(#clip10_14_73)">
<path d="M149.25 56.25H123.75C117.537 56.25 112.5 61.2868 112.5 67.5V93C112.5 99.2132 117.537 104.25 123.75 104.25H149.25C155.463 104.25 160.5 99.2132 160.5 93V67.5C160.5 61.2868 155.463 56.25 149.25 56.25Z" fill="#E14E1D"/>
<path d="M121.5 63.375L123.114 81.4862H143.873L143.176 89.2543L136.492 91.0614L129.821 89.2569L129.375 84.2691H123.364L124.223 93.8843L136.491 97.2915L148.774 93.8843L150.421 75.4978H128.592L128.044 69.3647H150.945H150.964L151.5 63.375H121.5Z" fill="white"/>
<path d="M136.5 63.375H121.5L123.114 81.4862H136.5V75.4978H128.592L128.044 69.3646H136.5V63.375Z" fill="#EBEBEB"/>
<path d="M136.5 91.0588L136.492 91.0614L129.821 89.2569L129.375 84.2691H123.364L124.223 93.8843L136.491 97.2915L136.5 97.2889V91.0588Z" fill="#EBEBEB"/>
</g>
<g clip-path="url(#clip11_14_73)">
<path d="M205.5 56.25H180C173.787 56.25 168.75 61.2868 168.75 67.5V93C168.75 99.2132 173.787 104.25 180 104.25H205.5C211.713 104.25 216.75 99.2132 216.75 93V67.5C216.75 61.2868 211.713 56.25 205.5 56.25Z" fill="#0277BD"/>
<path d="M178.829 75.4971L179.365 81.4862H192.768V75.4971H178.829Z" fill="#EBEBEB"/>
<path d="M192.768 63.375H192.747H177.75L178.294 69.3642H192.768V63.375Z" fill="#EBEBEB"/>
<path d="M192.768 97.2827V91.0515L192.742 91.0584L186.072 89.2575L185.645 84.4807H182.404H179.633L180.472 93.8846L192.74 97.2904L192.768 97.2827Z" fill="#EBEBEB"/>
<path d="M200.122 81.4862L199.427 89.2536L192.747 91.0566V97.2874L205.025 93.8846L205.115 92.8727L206.523 77.1054L206.669 75.4971L207.75 63.375H192.747V69.3642H201.186L200.641 75.4971H192.747V81.4862H200.122Z" fill="white"/>
</g>
<g clip-path="url(#clip12_14_73)">
<rect x="225" y="56" width="48" height="48" fill="#242938"/>
<path d="M252.829 80.4853C252.829 80.5398 252.828 80.5943 252.825 80.6487C252.822 80.7031 252.819 80.7574 252.813 80.8116C252.808 80.8659 252.801 80.92 252.793 80.9738C252.785 81.0277 252.776 81.0814 252.765 81.1348C252.755 81.1883 252.743 81.2414 252.729 81.2943C252.716 81.3472 252.702 81.3997 252.686 81.4518C252.67 81.504 252.653 81.5556 252.635 81.6069C252.616 81.6583 252.597 81.7091 252.576 81.7594C252.555 81.8098 252.533 81.8595 252.51 81.9088C252.486 81.9581 252.462 82.0067 252.436 82.0547C252.41 82.1028 252.384 82.1502 252.356 82.1969C252.327 82.2437 252.298 82.2897 252.268 82.335C252.238 82.3803 252.206 82.4248 252.174 82.4686C252.142 82.5123 252.108 82.5553 252.073 82.5974C252.039 82.6395 252.003 82.6808 251.967 82.7212C251.93 82.7615 251.893 82.801 251.854 82.8395C251.816 82.8781 251.776 82.9156 251.736 82.9522C251.695 82.9888 251.654 83.0244 251.612 83.059C251.57 83.0935 251.527 83.1269 251.483 83.1594C251.439 83.1919 251.395 83.2233 251.35 83.2535C251.304 83.2838 251.258 83.3129 251.211 83.341C251.165 83.369 251.117 83.3958 251.069 83.4215C251.021 83.4472 250.973 83.4717 250.923 83.4949C250.874 83.5183 250.824 83.5404 250.774 83.5612C250.724 83.5821 250.673 83.6016 250.622 83.6201C250.57 83.6384 250.518 83.6555 250.466 83.6713C250.414 83.6871 250.362 83.7016 250.309 83.7149C250.256 83.7281 250.203 83.74 250.149 83.7507C250.096 83.7613 250.042 83.7706 249.988 83.7786C249.935 83.7866 249.88 83.7933 249.826 83.7986C249.772 83.804 249.718 83.808 249.663 83.8106C249.609 83.8133 249.554 83.8146 249.5 83.8146C249.445 83.8146 249.391 83.8133 249.337 83.8106C249.282 83.808 249.228 83.804 249.174 83.7986C249.119 83.7933 249.065 83.7866 249.011 83.7786C248.958 83.7706 248.904 83.7613 248.85 83.7507C248.797 83.74 248.744 83.7281 248.691 83.7149C248.638 83.7016 248.586 83.6871 248.533 83.6713C248.481 83.6555 248.43 83.6384 248.378 83.6201C248.327 83.6016 248.276 83.5821 248.226 83.5612C248.176 83.5404 248.126 83.5183 248.076 83.4949C248.027 83.4717 247.979 83.4472 247.931 83.4215C247.882 83.3958 247.835 83.369 247.788 83.341C247.742 83.3129 247.696 83.2838 247.65 83.2535C247.605 83.2233 247.56 83.1919 247.517 83.1594C247.473 83.1269 247.43 83.0935 247.388 83.059C247.346 83.0244 247.304 82.9888 247.264 82.9522C247.224 82.9156 247.184 82.8781 247.146 82.8395C247.107 82.801 247.07 82.7615 247.033 82.7212C246.996 82.6808 246.961 82.6395 246.926 82.5974C246.892 82.5553 246.858 82.5123 246.826 82.4686C246.793 82.4248 246.762 82.3803 246.732 82.335C246.701 82.2897 246.672 82.2437 246.644 82.1969C246.616 82.1502 246.589 82.1028 246.564 82.0547C246.538 82.0067 246.514 81.9581 246.49 81.9088C246.467 81.8595 246.445 81.8098 246.424 81.7594C246.403 81.7091 246.384 81.6583 246.365 81.6069C246.347 81.5556 246.33 81.504 246.314 81.4518C246.298 81.3997 246.284 81.3472 246.27 81.2943C246.257 81.2414 246.245 81.1883 246.235 81.1348C246.224 81.0814 246.215 81.0277 246.207 80.9738C246.199 80.92 246.192 80.8659 246.187 80.8116C246.181 80.7574 246.177 80.7031 246.175 80.6487C246.172 80.5943 246.171 80.5398 246.171 80.4853C246.171 80.4308 246.172 80.3764 246.175 80.3219C246.177 80.2675 246.181 80.2133 246.187 80.1591C246.192 80.1048 246.199 80.0507 246.207 79.9968C246.215 79.943 246.224 79.8893 246.235 79.8359C246.245 79.7824 246.257 79.7293 246.27 79.6764C246.284 79.6235 246.298 79.571 246.314 79.5189C246.33 79.4667 246.347 79.415 246.365 79.3638C246.384 79.3124 246.403 79.2616 246.424 79.2112C246.445 79.1609 246.467 79.1111 246.49 79.0619C246.514 79.0126 246.538 78.964 246.564 78.9159C246.589 78.8679 246.616 78.8205 246.644 78.7737C246.672 78.727 246.701 78.681 246.732 78.6356C246.762 78.5904 246.793 78.5458 246.826 78.502C246.858 78.4584 246.892 78.4154 246.926 78.3733C246.961 78.3312 246.996 78.2899 247.033 78.2495C247.07 78.2092 247.107 78.1697 247.146 78.1311C247.184 78.0926 247.224 78.0551 247.264 78.0185C247.304 77.9819 247.346 77.9463 247.388 77.9117C247.43 77.8772 247.473 77.8436 247.517 77.8113C247.56 77.7788 247.605 77.7474 247.65 77.7171C247.696 77.6869 247.742 77.6577 247.788 77.6297C247.835 77.6017 247.882 77.5749 247.931 77.5491C247.979 77.5235 248.027 77.4989 248.076 77.4756C248.126 77.4524 248.176 77.4303 248.226 77.4094C248.276 77.3886 248.327 77.3691 248.378 77.3506C248.43 77.3323 248.481 77.3152 248.533 77.2994C248.586 77.2836 248.638 77.2691 248.691 77.2558C248.744 77.2426 248.797 77.2306 248.85 77.22C248.904 77.2094 248.958 77.2001 249.011 77.1921C249.065 77.1841 249.119 77.1774 249.174 77.172C249.228 77.1667 249.282 77.1627 249.337 77.16C249.391 77.1573 249.445 77.1561 249.5 77.1561C249.554 77.1561 249.609 77.1573 249.663 77.16C249.718 77.1627 249.772 77.1667 249.826 77.172C249.88 77.1774 249.935 77.1841 249.988 77.1921C250.042 77.2001 250.096 77.2094 250.149 77.22C250.203 77.2306 250.256 77.2426 250.309 77.2558C250.362 77.2691 250.414 77.2836 250.466 77.2994C250.518 77.3152 250.57 77.3323 250.622 77.3506C250.673 77.3691 250.724 77.3886 250.774 77.4094C250.824 77.4303 250.874 77.4524 250.923 77.4756C250.973 77.4989 251.021 77.5235 251.069 77.5491C251.117 77.5748 251.165 77.6017 251.211 77.6297C251.258 77.6577 251.304 77.6869 251.35 77.7171C251.395 77.7474 251.439 77.7788 251.483 77.8113C251.527 77.8436 251.57 77.8772 251.612 77.9117C251.654 77.9463 251.695 77.9819 251.736 78.0184C251.776 78.0551 251.816 78.0926 251.854 78.1311C251.893 78.1697 251.93 78.2092 251.967 78.2495C252.003 78.2899 252.039 78.3312 252.073 78.3733C252.108 78.4154 252.142 78.4584 252.174 78.502C252.206 78.5458 252.238 78.5904 252.268 78.6356C252.298 78.681 252.327 78.727 252.356 78.7738C252.384 78.8205 252.41 78.8679 252.436 78.9159C252.462 78.964 252.486 79.0126 252.51 79.0619C252.533 79.1111 252.555 79.1609 252.576 79.2112C252.597 79.2616 252.616 79.3124 252.635 79.3638C252.653 79.415 252.67 79.4667 252.686 79.5189C252.702 79.571 252.716 79.6235 252.729 79.6764C252.743 79.7293 252.755 79.7824 252.765 79.8359C252.776 79.8893 252.785 79.943 252.793 79.9968C252.801 80.0507 252.808 80.1048 252.813 80.1591C252.819 80.2133 252.822 80.2675 252.825 80.3219C252.828 80.3764 252.829 80.4308 252.829 80.4853Z" fill="#00D8FF"/>
<mask id="mask2_14_73" style="mask-type:luminance" maskUnits="userSpaceOnUse" x="230" y="63" width="39" height="34">
<path d="M230 63.6499H269V96.7735H230V63.6499Z" fill="white"/>
</mask>
<g mask="url(#mask2_14_73)">
<path d="M249.5 73.085C254.176 73.085 258.52 73.7561 261.795 74.8839C265.741 76.2427 268.167 78.3023 268.167 80.1674C268.167 82.1108 265.596 84.299 261.358 85.7033C258.155 86.765 253.939 87.3192 249.5 87.3192C244.949 87.3192 240.64 86.799 237.4 85.6917C233.301 84.2903 230.832 82.0739 230.832 80.1674C230.832 78.3175 233.149 76.2737 237.039 74.9169C240.327 73.7706 244.778 73.085 249.5 73.085H249.5Z" stroke="#00D8FF" stroke-width="1.53253"/>
</g>
<mask id="mask3_14_73" style="mask-type:luminance" maskUnits="userSpaceOnUse" x="230" y="61" width="39" height="38">
<path d="M230.013 61.9493H268.987V98.4499H230.013V61.9493Z" fill="white" stroke="white" stroke-width="0.0254938"/>
</mask>
<g mask="url(#mask3_14_73)">
<path d="M243.336 76.6459C245.672 72.5945 248.423 69.1663 251.036 66.8917C254.185 64.1514 257.18 63.0782 258.795 64.0098C260.479 64.9807 261.089 68.302 260.188 72.6754C259.508 75.9817 257.881 79.9113 255.664 83.7573C253.39 87.7004 250.787 91.1744 248.21 93.4276C244.948 96.2792 241.795 97.3112 240.144 96.3587C238.542 95.4352 237.93 92.4064 238.698 88.3576C239.348 84.9366 240.977 80.7377 243.335 76.6466L243.336 76.6459Z" stroke="#27BABD" stroke-width="1.53253"/>
<path d="M243.342 83.7674C241 79.7206 239.405 75.624 238.739 72.2238C237.937 68.127 238.504 64.9948 240.118 64.0602C241.799 63.0865 244.981 64.216 248.319 67.1806C250.843 69.422 253.434 72.7936 255.658 76.6357C257.938 80.5749 259.647 84.5659 260.312 87.9245C261.153 92.1748 260.472 95.4221 258.822 96.3775C257.222 97.3044 254.293 96.3232 251.17 93.6349C248.531 91.3636 245.707 87.8542 243.342 83.7667L243.342 83.7674Z" stroke="#27BABD" stroke-width="1.53253"/>
</g>
</g>
<rect x="225" width="48" height="48" rx="10" fill="white"/>
<path d="M249.439 5C246.639 7.24306 244.428 10.2007 243.09 13.6079C242.324 15.5595 241.843 17.6558 241.703 19.8533C246.619 21.1216 250.171 25.6668 249.986 30.9505C249.916 32.959 249.312 34.8215 248.32 36.4136C250.192 38.1458 252.386 39.5358 254.809 40.4875C259.671 38.2401 263.12 33.4038 263.32 27.6835C263.45 23.9772 262.026 20.6741 260.013 17.8859C257.889 14.9371 249.439 5 249.439 5Z" fill="#DD2C00"/>
<path d="M248.322 36.4125C244.048 32.4596 241.455 26.7384 241.674 20.4632C241.681 20.2594 241.692 20.0558 241.705 19.8522C240.939 19.6542 240.14 19.5334 239.318 19.5047C238.141 19.4635 237.001 19.6095 235.924 19.9126C234.783 21.9112 234.095 24.2044 234.009 26.6605C233.788 32.9996 237.624 38.5383 243.185 40.7783C245.313 39.8907 247.108 38.3576 248.322 36.4125Z" fill="#FFC400"/>
<path d="M248.322 36.4123C249.316 34.8221 249.918 32.9577 249.989 30.9492C250.173 25.6655 246.621 21.1203 241.705 19.852C241.692 20.0556 241.682 20.2592 241.674 20.463C241.455 26.7382 244.048 32.4595 248.322 36.4123Z" fill="#FF9100"/>
<path d="M243.186 40.7777C244.727 41.3979 246.399 41.7661 248.155 41.8274C250.531 41.9104 252.791 41.4191 254.811 40.4858C252.389 39.5341 250.195 38.1424 248.322 36.4119C247.109 38.3553 245.314 39.8901 243.186 40.7777Z" fill="#FF9100"/>
<g clip-path="url(#clip13_14_73)">
<path d="M92.75 56.25H67.25C61.0368 56.25 56 61.2868 56 67.5V93C56 99.2132 61.0368 104.25 67.25 104.25H92.75C98.9632 104.25 104 99.2132 104 93V67.5C104 61.2868 98.9632 56.25 92.75 56.25Z" fill="#242938"/>
<path fill-rule="evenodd" clip-rule="evenodd" d="M71.5625 76.875C72.6873 72.3752 75.5002 70.125 80 70.125C86.75 70.125 87.5938 75.1875 90.9688 76.0312C93.2189 76.5939 95.1875 75.7502 96.875 73.5C95.7502 77.9998 92.9373 80.25 88.4375 80.25C81.6875 80.25 80.8438 75.1875 77.4688 74.3438C75.2186 73.7811 73.25 74.6248 71.5625 76.875ZM63.125 87C64.2498 82.5002 67.0627 80.25 71.5625 80.25C78.3125 80.25 79.1562 85.3125 82.5312 86.1562C84.7814 86.7189 86.75 85.8752 88.4375 83.625C87.3127 88.1248 84.4998 90.375 80 90.375C73.25 90.375 72.4062 85.3125 69.0312 84.4688C66.7811 83.9061 64.8125 84.7498 63.125 87Z" fill="url(#paint2_linear_14_73)"/>
</g>
</g>
<defs>
<linearGradient id="paint0_linear_14_73" x1="8.85375" y1="8.793" x2="27.4374" y2="27.1912" gradientUnits="userSpaceOnUse">
<stop stop-color="#387EB8"/>
<stop offset="1" stop-color="#366994"/>
</linearGradient>
<linearGradient id="paint1_linear_14_73" x1="20.2605" y1="20.6072" x2="40.2173" y2="39.4729" gradientUnits="userSpaceOnUse">
<stop stop-color="#FFE052"/>
<stop offset="1" stop-color="#FFC331"/>
</linearGradient>
<linearGradient id="paint2_linear_14_73" x1="72.2187" y1="70.125" x2="86.6562" y2="91.0312" gradientUnits="userSpaceOnUse">
<stop stop-color="#32B1C1"/>
<stop offset="1" stop-color="#14C6B7"/>
</linearGradient>
<clipPath id="clip0_14_73">
<rect width="835.5" height="104.25" fill="white"/>
</clipPath>
<clipPath id="clip1_14_73">
<rect width="48" height="48" fill="white"/>
</clipPath>
<clipPath id="clip2_14_73">
<rect width="48" height="48" fill="white" transform="translate(56)"/>
</clipPath>
<clipPath id="clip3_14_73">
<rect width="48" height="48" fill="white" transform="translate(169)"/>
</clipPath>
<clipPath id="clip4_14_73">
<rect width="48" height="48" fill="white" transform="translate(113)"/>
</clipPath>
<clipPath id="clip5_14_73">
<rect width="48" height="48" fill="white" transform="translate(282)"/>
</clipPath>
<clipPath id="clip6_14_73">
<rect width="48" height="48" fill="white" transform="translate(338)"/>
</clipPath>
<clipPath id="clip7_14_73">
<rect width="48" height="48" fill="white" transform="translate(394)"/>
</clipPath>
<clipPath id="clip8_14_73">
<rect width="48" height="48" fill="white" transform="translate(450.25)"/>
</clipPath>
<clipPath id="clip9_14_73">
<rect width="48" height="48" fill="white" transform="translate(0 56.25)"/>
</clipPath>
<clipPath id="clip10_14_73">
<rect width="48" height="48" fill="white" transform="translate(112.5 56.25)"/>
</clipPath>
<clipPath id="clip11_14_73">
<rect width="48" height="48" fill="white" transform="translate(168.75 56.25)"/>
</clipPath>
<clipPath id="clip12_14_73">
<rect x="225" y="56" width="48" height="48" rx="11" fill="white"/>
</clipPath>
<clipPath id="clip13_14_73">
<rect width="48" height="48" fill="white" transform="translate(56 56.25)"/>
</clipPath>
</defs>
</svg>
